<svg width="571" height="146" viewBox="0 0 571 146" fill="none" xmlns="http://www.w3.org/2000/svg">
<rect width="571" height="146" fill="#503AE7"/>
<path d="M347.586 130C347.56 130 347.56 130 347.533 130C346.505 129.987 345.661 129.596 345.529 129.084L317.815 28.3285L307.189 80.7946C307.083 81.2527 306.424 81.6299 305.554 81.7243C304.657 81.8186 303.761 81.603 303.312 81.2123L285.566 65.1518L274.438 78.1672C274.095 78.5849 273.278 78.8274 272.381 78.8005C271.511 78.7735 270.773 78.4502 270.535 78.019L266.686 70.8241L245.247 107.324C244.957 107.809 244.061 108.119 243.085 108.079C242.11 108.038 241.318 107.647 241.213 107.149L233.513 74.5698L221.7 89.512C221.357 89.9566 220.46 90.2261 219.538 90.1722C218.615 90.1183 217.876 89.7545 217.718 89.2829L205.72 49.0104L176.002 114.223C175.765 114.721 174.868 115.071 173.84 115.044C172.838 115.017 172.02 114.613 171.915 114.088L154.063 24.8792L137.239 74.7854C137.081 75.23 136.396 75.5803 135.525 75.6477C134.655 75.715 133.785 75.4995 133.363 75.1087L123.554 65.8389L103.144 83.4623C102.696 83.8396 101.852 84.0417 101.008 83.9743C100.164 83.907 99.4787 83.5701 99.3205 83.139L89.2738 57.4179L76.5112 76.483C76.2211 76.9142 75.43 77.1837 74.5598 77.1837C73.6897 77.1837 72.8986 76.9681 72.6085 76.5504L66.0162 67.0785H34.0832C32.9493 67.0785 32 66.58 32 66.0006C32 65.4212 32.9229 64.9227 34.0832 64.9227H67.5193C68.3895 64.9227 69.1805 65.1787 69.4706 65.5964L74.5598 72.9395L87.8763 53.0121C88.1927 52.554 89.0365 52.2575 89.9858 52.298C90.9351 52.3249 91.6998 52.6752 91.8844 53.1468L102.379 79.9996L121.892 63.1442C122.262 62.8208 122.974 62.6187 123.712 62.6187C124.45 62.6322 125.136 62.8343 125.505 63.1711L134.207 71.39L152.533 16.8759C152.718 16.3504 153.615 15.9732 154.643 16.0001C155.671 16.0136 156.542 16.4313 156.647 16.9568L174.763 107.553L204.112 43.1494C204.349 42.6509 205.219 42.314 206.221 42.3275C207.223 42.341 208.041 42.7317 208.199 43.2302L220.671 85.1331L232.669 69.9618C233.012 69.5172 233.935 69.2477 234.858 69.3016C235.807 69.369 236.546 69.7462 236.651 70.2313L244.114 101.854L264.761 66.7147C265.024 66.2701 265.842 65.9871 266.738 65.9871H266.765C267.688 65.9871 268.505 66.2835 268.742 66.7282L272.961 74.5698L283.404 62.3493C283.72 61.9855 284.406 61.7295 285.197 61.716C285.988 61.689 286.726 61.9046 287.122 62.2549L303.708 77.2645L315.416 19.4628C315.521 18.9239 316.391 18.5197 317.446 18.5062C318.501 18.4927 319.398 18.8835 319.529 19.4224L347.903 122.388L376.091 45.7094C376.276 45.1974 377.172 44.8336 378.174 44.8471C379.203 44.8605 380.047 45.2378 380.179 45.7633L394.286 96.2623L421.525 59.4524C421.815 59.0617 422.527 58.7922 423.345 58.7653C424.162 58.7383 424.927 58.9539 425.323 59.3177L436.477 69.9888L448.58 60.9076C449.002 60.5842 449.74 60.4091 450.505 60.4495C451.27 60.4899 451.929 60.7324 452.219 61.0827L471.521 84.2303L485.444 63.225C485.734 62.7939 486.525 62.4705 487.396 62.4705C488.292 62.4705 489.083 62.7939 489.347 63.2116L498.075 76.1462L514.688 66.3105C515.083 66.0814 515.663 65.9602 516.27 65.9602H536.917C538.051 65.9602 539 66.4587 539 67.0381C539 67.6174 538.077 68.1159 536.917 68.1159H517.219L498.866 78.9756C498.392 79.2586 497.627 79.3799 496.915 79.3125C496.176 79.2451 495.596 78.9622 495.333 78.6119L487.422 66.8764L473.71 87.5448C473.446 87.9625 472.682 88.2455 471.811 88.2589C470.941 88.2724 470.15 88.0164 469.834 87.6122L449.872 63.6966L437.98 72.6296C437.558 72.9395 436.872 73.1146 436.16 73.0877C435.422 73.0742 434.789 72.8586 434.446 72.5218L423.819 62.3627L395.341 100.843C394.998 101.301 394.101 101.571 393.178 101.517C392.229 101.463 391.491 101.086 391.359 100.614L377.884 52.3923L349.696 129.111C349.458 129.636 348.588 130 347.586 130Z" fill="#1AD993"/>
</svg>
