<svg width="320" height="92" viewBox="0 0 320 92" fill="none" xmlns="http://www.w3.org/2000/svg">
<path d="M7.04753 25.4644H0V65.7143H7.04753V25.4644Z" fill="#1AD993"/>
<path d="M33.4207 19.7144H25.4922V72.2857H33.4207V19.7144Z" fill="#1AD993"/>
<path d="M58.9125 18.8929H51.865V72.2857H58.9125V18.8929Z" fill="#F4F2FF"/>
<path d="M85.2857 16.4287H77.3572V75.5714H85.2857V16.4287Z" fill="#1AD993"/>
<path d="M111.659 0H103.73V92H111.659V0Z" fill="#1AD993"/>
<path d="M137.151 16.4287H130.103V75.5714H137.151V16.4287Z" fill="#F4F2FF"/>
<path d="M189.897 25.4644H181.968V65.7143H189.897V25.4644Z" fill="#1AD993"/>
<path d="M163.524 25.4644H155.595V65.7143H163.524V25.4644Z" fill="#1AD993"/>
<path d="M215.389 19.7144H208.341V72.2857H215.389V19.7144Z" fill="#1AD993"/>
<path d="M241.762 16.4287H233.833V75.5714H241.762V16.4287Z" fill="#F4F2FF"/>
<path d="M268.135 25.4644H260.207V65.7143H268.135V25.4644Z" fill="#1AD993"/>
<path d="M293.627 19.7144H286.58V72.2857H293.627V19.7144Z" fill="#1AD993"/>
<path d="M320 33.6785H312.071V58.3214H320V33.6785Z" fill="#1AD993"/>
</svg>
