<svg width="197" height="48" viewBox="0 0 197 48" fill="none" xmlns="http://www.w3.org/2000/svg">
<path d="M190.417 6.03073V17.2308H194.303V22.6462H190.417V32.7384C190.417 33.7231 190.659 34.4615 191.145 34.9538C191.631 35.4461 192.36 35.6923 193.331 35.6923C193.817 35.6923 196.124 35.6923 196.124 35.6923V42.0923C196.124 42.0923 191.874 42.0923 191.266 42.0923C189.323 42.0923 186.895 41.7231 185.194 40.1231C183.494 38.523 182.766 36.4308 182.766 33.4769V22.5231H179.244V17.1077H182.766V6.03073H190.417ZM167.708 42.5846C164.186 42.5846 161.149 41.3539 159.085 39.1384C156.899 36.9231 155.928 33.9692 155.928 30.5231V29.6616C155.928 25.8461 156.899 22.7692 158.842 20.3077C160.785 17.9692 163.579 16.7385 167.221 16.7385C170.501 16.7385 173.172 17.7231 174.994 19.6923C176.937 21.7846 177.787 24.4923 177.787 27.9385V31.9999H163.822V32.123C163.943 33.4769 164.55 34.3385 165.4 35.2C166.25 36.0616 167.465 36.4308 168.8 36.4308C170.258 36.4308 171.35 36.3077 172.201 36.0616C173.05 35.8154 174.265 35.4462 175.48 34.8308L177.301 39.6307C176.208 40.4923 174.872 41.1077 173.172 41.7231C171.472 42.3385 169.529 42.5846 167.708 42.5846ZM167.1 22.6462C166.008 22.6462 165.157 23.0154 164.671 23.8769C164.186 24.7384 163.822 25.8461 163.7 27.0769L163.822 27.2H170.379V26.5846C170.379 25.2307 170.136 24.3692 169.651 23.7539C168.922 22.8924 168.193 22.6462 167.1 22.6462ZM142.084 42.5846C138.562 42.5846 135.526 41.3539 133.462 39.1384C131.397 36.9231 130.304 33.9692 130.304 30.5231V29.6616C130.304 25.8461 131.276 22.7692 133.219 20.3077C135.161 17.9692 137.955 16.7385 141.598 16.7385C144.877 16.7385 147.549 17.7231 149.37 19.6923C151.191 21.6615 152.163 24.4923 152.163 27.9385V31.9999H138.198V32.123C138.319 33.4769 138.926 34.3385 139.777 35.2C140.626 36.0616 141.841 36.4308 143.176 36.4308C144.634 36.4308 145.727 36.3077 146.577 36.0616C147.427 35.8154 148.641 35.4462 149.856 34.8308L151.678 39.6307C150.584 40.4923 149.248 41.1077 147.549 41.7231C145.97 42.3385 144.027 42.5846 142.084 42.5846ZM141.598 22.6462C140.505 22.6462 139.655 23.0154 139.169 23.8769C138.683 24.7384 138.319 25.8461 138.198 27.0769L138.319 27.2H144.877V26.5846C144.877 25.2307 144.634 24.3692 144.148 23.7539C143.42 22.8924 142.691 22.6462 141.598 22.6462ZM118.889 31.5077L121.561 16.9847H128.482L122.896 41.9692H116.46L112.453 28.677H112.331L108.324 41.9692H101.888L96.18 17.1077H103.223L105.895 31.7538H106.016L109.903 17.1077H114.76L118.889 31.5077ZM86.7074 34.9538C86.7074 34.3384 86.3432 33.7231 85.6147 33.2307C84.8863 32.7384 83.6718 32.2461 81.8499 31.8769C79.0569 31.2615 76.8709 30.4001 75.4137 29.2923C73.9565 28.0616 73.2278 26.4615 73.2278 24.3692C73.2278 22.1539 74.1993 20.3077 75.8994 18.7077C77.721 17.1077 80.15 16.4923 83.1856 16.4923C86.3431 16.4923 89.0145 17.2308 90.8364 18.7077C92.7794 20.1846 93.6297 22.0308 93.5078 24.4923V24.6154H86.222C86.222 23.6308 85.9789 22.8923 85.4928 22.4C85.0075 21.9077 84.1571 21.6615 83.1856 21.6615C82.3361 21.6615 81.7288 21.9077 81.1215 22.4C80.5142 22.8923 80.2711 23.3847 80.2711 24.1231C80.2711 24.8615 80.6353 25.3538 81.2426 25.8461C81.8499 26.3384 83.1856 26.7077 85.0075 27.0769C87.9219 27.6923 90.2291 28.5539 91.5648 29.6616C93.0224 30.8923 93.7509 32.4923 93.7509 34.7077C93.7509 36.9231 92.7794 38.7692 90.8364 40.2461C88.8934 41.7231 86.3431 42.4615 83.1856 42.4615C79.9069 42.4615 77.2353 41.6 75.2922 39.8769C73.3493 38.1538 72.4992 36.3077 72.6206 34.0923V33.9692H79.5427C79.5427 35.2 79.9069 36.0616 80.6353 36.4308C81.3646 36.8 82.3361 37.2924 83.4287 37.2924C84.5213 37.2924 85.2505 37.0462 85.7359 36.677C86.4643 36.3077 86.7074 35.6923 86.7074 34.9538ZM53.6761 16.9847L53.919 20.4308C54.769 19.2 55.7406 18.2154 56.8335 17.6C58.0479 16.8616 59.2623 16.4923 60.7196 16.4923C63.0269 16.4923 64.9699 17.3539 66.3058 18.8308C67.6416 20.3077 68.3702 22.8923 68.3702 26.3384V41.9692H60.9624V26.4615C60.9624 24.9846 60.7196 24.1231 60.1124 23.5077C59.5052 22.8923 58.6551 22.6462 57.5621 22.6462C56.8335 22.6462 56.2263 22.7693 55.6191 23.0154C55.0119 23.2616 54.5262 23.6308 54.1618 24.1231V42.0923H46.6326V17.1077H53.6761V16.9847ZM42.018 12.3077H34.3673V6.03073H42.018V12.3077ZM42.018 42.0923H34.3673V17.1077H42.018V42.0923ZM17.6087 42.0923V22.4H14.087V16.9847H17.6087V14.4C17.6087 11.5692 18.4587 9.35387 20.0374 7.75389C21.7376 6.15391 24.2878 5.78462 26.1094 5.78462C26.7167 5.78462 30.967 5.78462 30.967 5.78462V12.0615C30.967 12.0615 28.6596 12.0615 28.1739 12.0615C27.2024 12.0615 26.4737 12.3077 25.988 12.8C25.5022 13.2923 25.2593 14.0308 25.2593 15.0154V16.8616H29.9955V22.2769H25.2593V41.8461H17.6087V42.0923ZM3.03598 8.12309C3.03598 0.61539 6.92201 0 13.4798 0V5.90772C10.4438 5.90772 9.22936 6.40001 9.22936 8.24618V17.9692C9.22936 20.1846 9.35081 22.5231 7.52921 24C9.35081 25.4769 9.22936 27.6923 9.22936 30.0308V39.7538C9.22936 41.7231 10.4438 42.0923 13.4798 42.0923V48C6.92201 48 3.03598 47.3846 3.03598 39.8769V30.0308C3.03598 28.4308 3.03598 26.7077 0 26.7077V24.1231V21.5385C3.03598 21.5385 3.03598 19.6923 3.03598 18.2154V8.12309Z" fill="white"/>
</svg>
