<svg width="17" height="25" viewBox="0 0 17 25" fill="none" xmlns="http://www.w3.org/2000/svg">
<path d="M16.9844 10.523L16.695 11.6918C16.2061 13.6569 15.0419 15.3842 13.4156 16.5577C11.7892 17.7312 9.80933 18.2724 7.83819 18.0824L6.9469 21.6822L10.3741 22.5307L9.79531 24.8682L0.656198 22.6054L1.23496 20.2679L4.66212 21.1165L5.55341 17.5167C3.72132 16.7651 2.22272 15.3626 1.33178 13.5658C0.440848 11.769 0.217135 9.69807 0.701573 7.73185L0.990952 6.5631L3.27573 7.1288L2.98635 8.29755C2.60261 9.84741 2.83638 11.4828 3.63623 12.8439C4.43609 14.2051 5.7365 15.1805 7.2514 15.5556C8.76631 15.9307 10.3716 15.6747 11.7141 14.844C13.0567 14.0133 14.0265 12.6759 14.4102 11.1261L14.6996 9.95731L16.9844 10.523ZM7.83016 13.2181C8.7391 13.4431 9.70228 13.2895 10.5078 12.7911C11.3133 12.2927 11.8952 11.4903 12.1255 10.5604L13.5724 4.7166C13.8026 3.78669 13.6623 2.80546 13.1824 1.98877C12.7025 1.17209 11.9223 0.586845 11.0133 0.361794C10.1044 0.136744 9.14121 0.290319 8.33568 0.788735C7.53015 1.28715 6.94827 2.08958 6.71802 3.0195L5.27113 8.86326C5.04089 9.79317 5.18115 10.7744 5.66106 11.5911C6.14097 12.4078 6.92122 12.993 7.83016 13.2181Z" fill="#14142B"/>
</svg>
