<svg width="128" height="32" viewBox="0 0 128 32" fill="none" xmlns="http://www.w3.org/2000/svg">
<g clip-path="url(#clip0_759_1918)">
<path d="M125.506 15.5088C125.226 15.5106 124.948 15.4572 124.687 15.3515C124.428 15.2459 124.192 15.0901 123.993 14.8933C123.795 14.6966 123.638 14.4626 123.532 14.2051C123.425 13.9477 123.371 13.6718 123.373 13.3935C123.373 12.8288 123.599 12.2872 124.002 11.8879C124.404 11.4886 124.951 11.2642 125.52 11.2642C125.8 11.2624 126.079 11.3158 126.339 11.4214C126.598 11.5271 126.834 11.6828 127.033 11.8796C127.231 12.0764 127.388 12.3103 127.495 12.5678C127.601 12.8253 127.655 13.1012 127.653 13.3795C127.653 13.9442 127.427 14.4858 127.024 14.885C126.622 15.2844 126.076 15.5088 125.506 15.5088ZM125.506 11.4744C125.122 11.4716 124.746 11.5822 124.426 11.792C124.105 12.0018 123.855 12.3013 123.707 12.6526C123.559 13.0038 123.519 13.3909 123.593 13.7644C123.667 14.138 123.852 14.4812 124.124 14.7505C124.395 15.0197 124.741 15.2028 125.118 15.2763C125.494 15.3499 125.885 15.3107 126.239 15.1638C126.593 15.0168 126.895 14.7686 127.107 14.451C127.318 14.1332 127.43 13.7602 127.427 13.3795C127.429 13.13 127.381 12.8826 127.286 12.6515C127.191 12.4205 127.051 12.2103 126.873 12.0332C126.696 11.8561 126.485 11.7155 126.253 11.6197C126.021 11.5237 125.771 11.4744 125.52 11.4744H125.506ZM125.986 13.6036L126.579 14.4441H126.071L125.534 13.6736H125.068V14.4441H124.631V12.2167H125.633C126.155 12.2167 126.509 12.4829 126.509 12.9172C126.512 13.0711 126.464 13.2218 126.372 13.3459C126.28 13.47 126.149 13.5606 126.001 13.6036H125.986ZM125.619 12.5951H125.068V13.2954H125.619C125.901 13.2954 126.071 13.1694 126.071 12.9452C126.071 12.7211 125.916 12.5951 125.633 12.5951H125.619Z" fill="#14142B"/>
<path d="M107.159 11.3066V10.8863C107.159 9.65357 107.624 9.10726 108.684 9.10726C109.273 9.11401 109.856 9.22305 110.408 9.42944C110.438 9.44336 110.472 9.45056 110.506 9.45056C110.54 9.45056 110.574 9.44336 110.605 9.42944C110.633 9.40769 110.655 9.37992 110.669 9.34831C110.684 9.3167 110.691 9.28213 110.69 9.24733V6.68384C110.692 6.63476 110.679 6.58623 110.65 6.54573C110.622 6.50523 110.581 6.47501 110.534 6.45971C109.71 6.24457 108.858 6.15019 108.006 6.17955C105.181 6.17955 103.769 7.74846 103.769 10.7042V11.3486H102.356C102.3 11.3486 102.246 11.3707 102.206 11.4101C102.166 11.4495 102.145 11.5029 102.145 11.5587V14.1642C102.145 14.2213 102.166 14.2762 102.205 14.318C102.245 14.3596 102.299 14.3848 102.356 14.3883H103.769V24.7263C103.769 24.7821 103.791 24.8356 103.831 24.875C103.871 24.9144 103.925 24.9365 103.98 24.9365H106.961C107.018 24.9366 107.074 24.9149 107.116 24.8759C107.158 24.8367 107.184 24.7834 107.187 24.7263V14.3182H110.012L114.363 24.6423C113.868 25.7349 113.373 25.945 112.709 25.945C112.124 25.9293 111.551 25.7705 111.043 25.4828C111.014 25.4692 110.983 25.4621 110.951 25.4621C110.919 25.4621 110.888 25.4692 110.859 25.4828C110.831 25.4909 110.805 25.5052 110.783 25.5246C110.761 25.544 110.744 25.568 110.733 25.5949L109.786 27.8222C109.765 27.8728 109.763 27.9292 109.781 27.9808C109.8 28.0324 109.836 28.0756 109.885 28.1023C110.872 28.6639 111.995 28.9495 113.133 28.9288C115.365 28.9288 116.608 27.8922 117.71 25.1045L122.979 11.6007C122.996 11.5684 123.005 11.5322 123.005 11.4956C123.005 11.459 122.996 11.4229 122.979 11.3906C122.957 11.3633 122.929 11.3416 122.897 11.327C122.865 11.3125 122.83 11.3055 122.795 11.3066H119.546C119.501 11.3094 119.458 11.3237 119.422 11.3484C119.384 11.3729 119.354 11.4068 119.334 11.4466L116.1 20.6219L112.61 11.4466C112.593 11.4048 112.565 11.3691 112.527 11.3442C112.489 11.3191 112.444 11.3061 112.399 11.3066H107.159Z" fill="#14142B"/>
<path d="M100.408 11.2925H97.3705C97.2457 11.2925 97.1445 11.3928 97.1445 11.5166V24.6562C97.1445 24.78 97.2457 24.8804 97.3705 24.8804H100.408C100.532 24.8804 100.633 24.78 100.633 24.6562V11.5166C100.633 11.3928 100.532 11.2925 100.408 11.2925Z" fill="#14142B"/>
<path d="M98.9027 5.93461C98.4829 5.93193 98.071 6.05298 97.7209 6.28242C97.3704 6.51186 97.0965 6.83935 96.9339 7.22338C96.7713 7.6074 96.7274 8.03067 96.8076 8.43949C96.8879 8.84833 97.0888 9.22431 97.3847 9.51978C97.6808 9.81525 98.0591 10.0169 98.4699 10.0991C98.8818 10.1814 99.3086 10.1405 99.6975 9.98178C100.085 9.82301 100.418 9.55348 100.651 9.20736C100.885 8.86124 101.01 8.45411 101.01 8.03761C101.011 7.76208 100.958 7.48892 100.853 7.23385C100.748 6.97878 100.593 6.74684 100.398 6.55138C100.201 6.35593 99.9688 6.2008 99.7125 6.09495C99.4552 5.98911 99.181 5.93461 98.9027 5.93461Z" fill="#14142B"/>
<path d="M95.5059 11.2923H92.1584V7.90235C92.1585 7.84527 92.1367 7.79028 92.0973 7.74863C92.0579 7.70697 92.0039 7.68179 91.9465 7.67822H88.9097C88.8498 7.67822 88.7923 7.70184 88.7499 7.74388C88.7075 7.78591 88.6838 7.84291 88.6838 7.90235V11.2923H87.1865C87.1587 11.2923 87.1311 11.2977 87.1054 11.3083C87.0797 11.3189 87.0564 11.3343 87.0367 11.3539C87.017 11.3733 87.0014 11.3966 86.9908 11.422C86.9801 11.4476 86.9746 11.4749 86.9746 11.5024V14.094C86.9745 14.1511 86.9963 14.206 87.0357 14.2477C87.0751 14.2893 87.1291 14.3145 87.1865 14.3181H88.599V21.014C88.599 23.7175 90.0115 25.0904 92.6387 25.0904C93.6272 25.1181 94.6044 24.8758 95.4636 24.3899C95.4981 24.3737 95.5272 24.3478 95.5473 24.3155C95.5673 24.2832 95.5775 24.2458 95.5766 24.2079V21.7424C95.5771 21.7043 95.5684 21.6666 95.5513 21.6324C95.534 21.5982 95.5088 21.5687 95.4777 21.5463C95.4439 21.5251 95.4047 21.5139 95.3647 21.5139C95.3247 21.5139 95.2855 21.5251 95.2517 21.5463C94.7001 21.8234 94.0903 21.9674 93.4719 21.9666C92.4974 21.9666 92.0595 21.5323 92.0595 20.5657V14.3181H95.4071C95.467 14.3181 95.5244 14.2944 95.5668 14.2524C95.6092 14.2104 95.633 14.1534 95.633 14.094V11.5024C95.6347 11.4589 95.6236 11.4159 95.601 11.3786C95.5785 11.3413 95.5454 11.3113 95.5059 11.2923Z" fill="#14142B"/>
<path d="M79.4882 11.0121C78.0768 11.0372 76.7044 11.4761 75.5442 12.2737C74.384 13.0713 73.4879 14.1918 72.969 15.4938C72.4502 16.7959 72.3317 18.2212 72.6286 19.5899C72.9256 20.9586 73.6245 22.2095 74.6373 23.1847C75.6502 24.16 76.9315 24.8158 78.3199 25.0697C79.7081 25.3236 81.1411 25.1641 82.4381 24.6112C83.7351 24.0584 84.838 23.137 85.6075 21.9633C86.3771 20.7896 86.779 19.4161 86.7625 18.0162C86.7496 17.0823 86.5511 16.1601 86.1783 15.3025C85.8057 14.4447 85.266 13.6683 84.5903 13.0178C83.9146 12.3672 83.1161 11.8551 82.2407 11.511C81.3652 11.1669 80.4299 10.9974 79.4882 11.0121ZM79.4882 22.1206C78.9665 22.1138 78.4514 22.0025 77.9741 21.7932C77.4969 21.584 77.0671 21.2812 76.7109 20.903C76.3546 20.5248 76.0792 20.0791 75.9011 19.5926C75.723 19.1062 75.646 18.589 75.6746 18.0722C75.6418 17.5626 75.7146 17.0517 75.8885 16.5711C76.0624 16.0903 76.3337 15.65 76.6857 15.2773C77.0377 14.9046 77.4629 14.6073 77.9352 14.4038C78.4075 14.2003 78.9168 14.0948 79.4318 14.0939C79.9553 14.0971 80.4728 14.2053 80.9531 14.4119C81.4334 14.6184 81.8667 14.9191 82.2269 15.296C82.5871 15.6728 82.8667 16.1179 83.049 16.6047C83.2313 17.0914 83.3126 17.6096 83.2878 18.1283C83.3208 18.6422 83.2468 19.1572 83.0705 19.6415C82.8942 20.1257 82.6192 20.5689 82.2629 20.9433C81.9065 21.3178 81.4763 21.6155 80.9989 21.818C80.5216 22.0206 80.0074 22.1236 79.4882 22.1206Z" fill="#14142B"/>
<path d="M64.8404 11.0122C64.0246 11.0073 63.2184 11.1877 62.4838 11.5398C61.7493 11.892 61.1059 12.4062 60.6031 13.0434V11.5026C60.5994 11.4455 60.574 11.392 60.5321 11.353C60.4901 11.314 60.4346 11.2923 60.377 11.2924H57.312C57.2544 11.2923 57.1989 11.314 57.1569 11.353C57.115 11.392 57.0895 11.4455 57.0859 11.5026V28.5925C57.0859 28.6519 57.1098 28.709 57.1522 28.751C57.1945 28.7931 57.2521 28.8166 57.312 28.8166H60.3488C60.4087 28.8166 60.4662 28.7931 60.5086 28.751C60.551 28.709 60.5747 28.6519 60.5747 28.5925V23.2273C61.0943 23.8378 61.7437 24.3265 62.4764 24.6583C63.2091 24.9902 64.0068 25.1569 64.8122 25.1465C67.9902 25.1465 71.2107 22.7231 71.2107 18.0723C71.2107 13.4216 68.0185 11.0122 64.8404 11.0122ZM67.6653 18.0164C67.7182 18.5173 67.6657 19.0236 67.5113 19.5034C67.3567 19.9832 67.1036 20.4261 66.7677 20.8039C66.4319 21.1817 66.0207 21.4863 65.5601 21.6985C65.0995 21.9107 64.5996 22.0259 64.0918 22.0366C63.5827 22.0211 63.082 21.9034 62.62 21.6906C62.1579 21.4778 61.7441 21.1744 61.4035 20.7987C61.063 20.423 60.8027 19.9828 60.6385 19.5045C60.4741 19.0264 60.4092 18.5201 60.4477 18.0164C60.4112 17.5137 60.4776 17.009 60.6429 16.5324C60.808 16.0558 61.0687 15.6172 61.409 15.2431C61.7494 14.8689 62.1624 14.5668 62.6234 14.3549C63.0845 14.143 63.584 14.0257 64.0918 14.01C64.6057 14.0187 65.1122 14.1336 65.579 14.3473C66.0457 14.5608 66.4625 14.8685 66.8026 15.2507C67.1428 15.6329 67.399 16.0812 67.5548 16.567C67.7107 17.0528 67.7628 17.5655 67.7077 18.0723L67.6653 18.0164Z" fill="#14142B"/>
<path d="M50.0953 14.3322C46.7053 13.5198 46.098 12.9314 46.098 11.7828C46.098 10.6341 47.1573 9.90564 48.7393 9.90564C50.4356 9.96872 52.0638 10.5841 53.3722 11.6567C53.3984 11.6701 53.4274 11.6772 53.4569 11.6772C53.4864 11.6772 53.5156 11.6701 53.5417 11.6567C53.5973 11.646 53.6473 11.6163 53.6829 11.5726L55.3497 9.24726C55.3829 9.20531 55.4009 9.15351 55.4009 9.10017C55.4009 9.04683 55.3829 8.99504 55.3497 8.95309C53.5119 7.46119 51.1986 6.66668 48.824 6.71178C45.1658 6.71178 42.6092 8.89705 42.6092 12.0068C42.6092 15.3548 44.8127 16.5455 48.6263 17.456C51.875 18.1985 52.4259 18.8568 52.4259 19.9355C52.4259 21.0141 51.31 21.9247 49.6009 21.9247C47.5806 21.9108 45.6451 21.1169 44.2052 19.7113C44.1503 19.6931 44.0908 19.6931 44.0358 19.7113C43.9774 19.7253 43.9237 19.7542 43.8804 19.7954L41.9877 21.9667C41.9479 22.0083 41.9258 22.0634 41.9258 22.1207C41.9258 22.1781 41.9479 22.2332 41.9877 22.2748C44.0438 24.1014 46.7136 25.1005 49.4738 25.0765C53.4145 25.0765 55.9711 22.9332 55.9711 19.6273C55.9147 16.8677 54.2197 15.3268 50.0953 14.3322Z" fill="#14142B"/>
<path d="M16.1331 0C12.9423 0 9.82308 0.938387 7.17004 2.69648C4.51696 4.45459 2.44914 6.95344 1.22807 9.87704C0.00698993 12.8007 -0.312499 16.0178 0.31 19.1214C0.932501 22.2251 2.46902 25.0761 4.72528 27.3137C6.98153 29.5514 9.85617 31.0752 12.9857 31.6926C16.1152 32.3099 19.359 31.9931 22.307 30.7821C25.2549 29.5711 27.7745 27.5203 29.5472 24.8891C31.32 22.258 32.2662 19.1645 32.2662 16C32.2662 11.7565 30.5664 7.68688 27.5409 4.6863C24.5153 1.68571 20.4118 0 16.1331 0ZM23.5366 23.0743C23.4679 23.1873 23.3772 23.2857 23.27 23.3637C23.1626 23.4418 23.0407 23.4978 22.9113 23.5287C22.7819 23.5596 22.6476 23.5647 22.5163 23.5436C22.3849 23.5226 22.259 23.476 22.146 23.4062C18.3606 21.1077 13.5966 20.5969 7.98287 21.8611C7.85516 21.8914 7.72268 21.8961 7.59311 21.8752C7.46354 21.8542 7.33945 21.8079 7.22805 21.7391C7.11666 21.6701 7.02017 21.58 6.94419 21.4738C6.8682 21.3677 6.81424 21.2475 6.78543 21.1205C6.75482 20.9931 6.74986 20.8608 6.77084 20.7315C6.79182 20.6021 6.83833 20.4782 6.9077 20.3667C6.97707 20.2552 7.06794 20.1583 7.1751 20.0817C7.28227 20.0051 7.40363 19.9502 7.53222 19.9202C13.6739 18.5283 18.9528 19.1285 23.2018 21.7079C23.4285 21.8454 23.591 22.0664 23.6537 22.3225C23.7166 22.5785 23.6744 22.8489 23.5366 23.0743ZM25.5066 18.7199C25.3266 18.9944 25.0472 19.1898 24.7261 19.2658C24.4051 19.3419 24.0667 19.2927 23.7812 19.1285C18.8856 16.4201 13.1063 15.7496 7.71247 17.2642C7.54464 17.357 7.35798 17.4114 7.1662 17.4233C6.97442 17.4352 6.78239 17.4043 6.60416 17.3331C6.42594 17.2619 6.26606 17.152 6.13625 17.0115C6.00644 16.871 5.90998 16.7035 5.85395 16.5211C5.79793 16.3389 5.78375 16.1464 5.81247 15.958C5.84119 15.7696 5.91206 15.5899 6.0199 15.4322C6.12774 15.2744 6.26982 15.1426 6.43571 15.0464C6.60159 14.9503 6.78708 14.8921 6.97857 14.8763C9.98916 14.0168 13.1426 13.7627 16.2536 14.1289C19.3646 14.495 22.3705 15.4742 25.0945 17.0088C25.3713 17.1873 25.5684 17.4643 25.645 17.7828C25.7217 18.1011 25.6721 18.4366 25.5066 18.7199ZM25.6739 14.1868C20.5237 11.1221 11.9099 10.8412 6.93994 12.3352C6.55748 12.4503 6.14457 12.4101 5.79203 12.2233C5.43949 12.0365 5.17622 11.7185 5.0601 11.3392C4.944 10.9599 4.98459 10.5504 5.17292 10.2007C5.36127 9.85113 5.68194 9.59003 6.0644 9.4749C11.7682 7.76377 21.2318 8.09577 27.219 11.6074C27.5268 11.8258 27.7404 12.1512 27.8173 12.5187C27.8942 12.8863 27.8288 13.2691 27.6341 13.591C27.4393 13.9128 27.1296 14.1503 26.7663 14.2559C26.4031 14.3615 26.0131 14.3278 25.6739 14.1612V14.1868Z" fill="#1DD75F"/>
</g>
<defs>
<clipPath id="clip0_759_1918">
<rect width="127.822" height="32" fill="white"/>
</clipPath>
</defs>
</svg>
