<svg width="196" height="32" viewBox="0 0 196 32" fill="none" xmlns="http://www.w3.org/2000/svg">
<g clip-path="url(#clip0_759_1916)">
<path fill-rule="evenodd" clip-rule="evenodd" d="M118.251 22.8658H116.332V8.20221H121.421C122.686 8.20221 123.781 8.61522 124.705 9.4412C125.63 10.2672 126.092 11.3083 126.092 12.5644C126.092 13.8205 125.63 14.8616 124.705 15.6876C123.781 16.5137 122.686 16.9267 121.421 16.9267H118.251V22.8658ZM118.251 15.1244H121.462C122.269 15.1244 122.916 14.8582 123.402 14.3257C123.889 13.7932 124.132 13.2061 124.132 12.5644C124.132 11.9227 123.889 11.3356 123.402 10.8032C122.916 10.2706 122.269 10.0045 121.462 10.0045H118.251V15.1244ZM127.684 14.039C128.671 13.0149 129.929 12.5029 131.458 12.5029C132.988 12.5029 134.246 13.0115 135.233 14.0287C136.22 15.0459 136.714 16.319 136.714 17.8482C136.714 19.3774 136.22 20.6506 135.233 21.6678C134.246 22.6849 132.988 23.1934 131.458 23.1934C129.929 23.1934 128.671 22.6849 127.684 21.6678C126.697 20.6506 126.203 19.3774 126.203 17.8482C126.203 16.319 126.697 15.0493 127.684 14.039ZM129.102 20.4901C129.769 21.1455 130.555 21.4732 131.458 21.4732C132.362 21.4732 133.144 21.1421 133.805 20.4799C134.465 19.8177 134.795 18.9405 134.795 17.8482C134.795 16.756 134.465 15.8788 133.805 15.2165C133.144 14.5544 132.362 14.2233 131.458 14.2233C130.555 14.2233 129.772 14.5544 129.112 15.2165C128.452 15.8788 128.122 16.756 128.122 17.8482C128.122 18.9405 128.448 19.8211 129.102 20.4901ZM142.497 23.1934C141.176 23.1934 140.036 22.6815 139.077 21.6575C138.118 20.6335 137.637 19.3637 137.637 17.8482C137.637 16.3327 138.118 15.063 139.077 14.039C140.036 13.0149 141.176 12.5029 142.497 12.5029C143.275 12.5029 143.974 12.6669 144.593 12.9945C145.212 13.3222 145.674 13.7317 145.98 14.2233H146.063L145.98 12.8307V8.20221H147.899V22.8658H146.063V21.4732H145.98C145.674 21.9647 145.212 22.3743 144.593 22.702C143.974 23.0296 143.275 23.1934 142.497 23.1934ZM142.81 21.4732C143.713 21.4732 144.482 21.1455 145.114 20.4901C145.747 19.8348 146.063 18.9542 146.063 17.8482C146.063 16.7423 145.747 15.8617 145.114 15.2064C144.482 14.551 143.713 14.2233 142.81 14.2233C141.92 14.2233 141.155 14.5544 140.516 15.2165C139.876 15.8788 139.556 16.756 139.556 17.8482C139.556 18.9405 139.876 19.8177 140.516 20.4799C141.155 21.1421 141.92 21.4732 142.81 21.4732ZM154.557 23.1934C153.029 23.1934 151.77 22.6849 150.783 21.6678C149.796 20.6506 149.302 19.3774 149.302 17.8482C149.302 16.319 149.796 15.0459 150.783 14.0287C151.77 13.0115 153.029 12.5029 154.557 12.5029C155.698 12.5029 156.643 12.776 157.394 13.3222C158.145 13.8683 158.694 14.5578 159.041 15.3906L157.29 16.1074C156.761 14.8513 155.809 14.2233 154.433 14.2233C153.585 14.2233 152.837 14.5647 152.191 15.2473C151.544 15.9299 151.221 16.7969 151.221 17.8482C151.221 18.8995 151.544 19.7666 152.191 20.4491C152.837 21.1318 153.585 21.4732 154.433 21.4732C155.865 21.4732 156.852 20.8451 157.394 19.5891L159.104 20.3058C158.756 21.125 158.197 21.8111 157.425 22.364C156.653 22.917 155.698 23.1934 154.557 23.1934ZM163.656 23.1934C162.572 23.1934 161.665 22.8863 160.935 22.2719C160.205 21.6575 159.84 20.8451 159.84 19.8348C159.84 18.7425 160.271 17.8858 161.133 17.2646C161.995 16.6433 163.059 16.3327 164.324 16.3327C165.45 16.3327 166.374 16.5375 167.097 16.9471V16.6604C167.097 15.9232 166.841 15.3327 166.326 14.8889C165.811 14.4452 165.179 14.2233 164.429 14.2233C163.872 14.2233 163.368 14.353 162.916 14.6125C162.465 14.8718 162.155 15.2268 161.988 15.6773L160.236 14.9401C160.472 14.3393 160.939 13.783 161.634 13.271C162.329 12.7589 163.246 12.5029 164.386 12.5029C165.693 12.5029 166.778 12.8785 167.64 13.6294C168.502 14.3803 168.933 15.4384 168.933 16.8038V22.8658H167.097V21.4732H167.014C166.249 22.6201 165.13 23.1934 163.656 23.1934ZM163.969 21.4732C164.762 21.4732 165.481 21.183 166.128 20.6028C166.774 20.0225 167.097 19.3365 167.097 18.5445C166.556 18.1077 165.742 17.8892 164.657 17.8892C163.726 17.8892 163.024 18.0871 162.551 18.4831C162.079 18.8791 161.842 19.3433 161.842 19.8757C161.842 20.3672 162.058 20.7564 162.489 21.0431C162.92 21.3299 163.413 21.4732 163.969 21.4732ZM174.549 23.1934C173.409 23.1934 172.467 22.9204 171.723 22.3743C170.979 21.8282 170.433 21.1455 170.086 20.3263L171.796 19.63C172.339 20.8861 173.263 21.5141 174.57 21.5141C175.168 21.5141 175.658 21.3844 176.04 21.125C176.423 20.8657 176.614 20.5243 176.614 20.1011C176.614 19.4456 176.148 19.002 175.216 18.7698L173.151 18.2783C172.498 18.1145 171.879 17.8039 171.295 17.3465C170.712 16.8891 170.42 16.2713 170.42 15.4931C170.42 14.6056 170.819 13.8854 171.619 13.3324C172.418 12.7795 173.367 12.5029 174.466 12.5029C175.369 12.5029 176.176 12.7044 176.885 13.1071C177.594 13.51 178.102 14.0868 178.408 14.8377L176.739 15.5135C176.363 14.626 175.585 14.1824 174.403 14.1824C173.833 14.1824 173.353 14.2984 172.964 14.5304C172.574 14.7626 172.38 15.0767 172.38 15.4725C172.38 16.046 172.832 16.4351 173.736 16.64L175.759 17.1109C176.718 17.3294 177.427 17.7048 177.886 18.2374C178.345 18.7698 178.574 19.3706 178.574 20.0396C178.574 20.9407 178.199 21.6916 177.448 22.2924C176.698 22.8932 175.731 23.1934 174.549 23.1934ZM184.316 23.0296C183.245 23.0296 182.428 22.7498 181.865 22.19C181.301 21.6301 181.02 20.8383 181.02 19.8143V14.551H179.227V12.8307H181.02V9.75864H182.939V12.8307H185.442V14.551H182.939V19.671C182.939 20.7632 183.398 21.3093 184.316 21.3093C184.663 21.3093 184.955 21.2547 185.191 21.1455L185.859 22.7634C185.442 22.9409 184.927 23.0296 184.316 23.0296ZM191.036 23.1934C189.896 23.1934 188.955 22.9204 188.211 22.3743C187.467 21.8282 186.921 21.1455 186.574 20.3263L188.284 19.63C188.826 20.8861 189.75 21.5141 191.058 21.5141C191.656 21.5141 192.145 21.3844 192.528 21.125C192.911 20.8657 193.101 20.5243 193.101 20.1011C193.101 19.4456 192.636 19.002 191.704 18.7698L189.639 18.2783C188.986 18.1145 188.367 17.8039 187.783 17.3465C187.199 16.8891 186.907 16.2713 186.907 15.4931C186.907 14.6056 187.307 13.8854 188.107 13.3324C188.906 12.7795 189.855 12.5029 190.954 12.5029C191.857 12.5029 192.664 12.7044 193.373 13.1071C194.082 13.51 194.59 14.0868 194.895 14.8377L193.227 15.5135C192.851 14.626 192.073 14.1824 190.89 14.1824C190.32 14.1824 189.841 14.2984 189.452 14.5304C189.062 14.7626 188.868 15.0767 188.868 15.4725C188.868 16.046 189.319 16.4351 190.224 16.64L192.246 17.1109C193.206 17.3294 193.915 17.7048 194.374 18.2374C194.832 18.7698 195.062 19.3706 195.062 20.0396C195.062 20.9407 194.686 21.6916 193.936 22.2924C193.185 22.8932 192.219 23.1934 191.036 23.1934Z" fill="#14142B"/>
<path d="M43.4658 14.7869C43.4658 10.147 47.4252 6.38696 52.1503 6.38696C54.7573 6.38696 56.6148 7.39496 58.016 8.70695L56.354 10.3229C55.3602 9.39494 54.0078 8.67496 52.1503 8.67496C48.7124 8.67496 46.024 11.3949 46.024 14.7709C46.024 18.1469 48.7124 20.8669 52.1503 20.8669C54.3825 20.8669 55.6534 19.9869 56.4681 19.1869C57.1362 18.5309 57.5761 17.587 57.739 16.3069H52.1503V14.0189H60.0201C60.1015 14.4349 60.1505 14.9149 60.1505 15.4589C60.1505 17.1869 59.6779 19.3149 58.13 20.8189C56.6148 22.3549 54.6921 23.1708 52.1503 23.1708C47.4252 23.1708 43.4658 19.4109 43.4658 14.7869ZM66.4234 12.467C69.4703 12.467 71.9469 14.7389 71.9469 17.8749C71.9469 20.9949 69.4703 23.2829 66.4234 23.2829C63.3766 23.2829 60.8999 20.9949 60.8999 17.8749C60.8999 14.7389 63.3766 12.467 66.4234 12.467ZM66.4234 21.1388C68.0854 21.1388 69.5355 19.7949 69.5355 17.8589C69.5355 15.9069 68.0854 14.579 66.4234 14.579C64.7452 14.579 63.3114 15.9069 63.3114 17.8589C63.3114 19.7949 64.7615 21.1388 66.4234 21.1388ZM78.4807 12.467C81.5276 12.467 84.0042 14.7389 84.0042 17.8749C84.0042 20.9949 81.5276 23.2829 78.4807 23.2829C75.4338 23.2829 72.9572 20.9949 72.9572 17.8749C72.9572 14.7389 75.4338 12.467 78.4807 12.467ZM78.4807 21.1388C80.1426 21.1388 81.5927 19.7949 81.5927 17.8589C81.5927 15.9069 80.1589 14.579 78.4807 14.579C76.8024 14.579 75.3686 15.9069 75.3686 17.8589C75.3686 19.7949 76.8187 21.1388 78.4807 21.1388ZM93.2753 12.643H95.589V22.3549C95.589 26.3549 93.1938 27.9868 90.3586 27.9868C87.6866 27.9868 86.0734 26.2269 85.4706 24.7869L87.5725 23.9229C87.9472 24.8029 88.8597 25.8429 90.3423 25.8429C92.151 25.8429 93.2753 24.7389 93.2753 22.6749V21.8909H93.1938C92.6561 22.5469 91.6133 23.1229 90.2935 23.1229C87.5399 23.1229 85.0144 20.7549 85.0144 17.7309C85.0144 14.6749 87.5399 12.307 90.2935 12.307C91.6133 12.307 92.6561 12.8829 93.1938 13.523H93.2753V12.643ZM90.5053 20.9949C92.151 20.9949 93.4544 19.6349 93.4381 17.7309C93.4381 15.8269 92.151 14.4349 90.5053 14.4349C88.8434 14.4349 87.4421 15.8269 87.4421 17.7309C87.4421 19.6189 88.8434 20.9949 90.5053 20.9949ZM97.2347 22.9148V7.02696H99.6458V22.9148H97.2347ZM106.278 21.1388C107.516 21.1388 108.363 20.5468 108.998 19.6509L110.872 20.8829C110.253 21.7629 108.803 23.2829 106.278 23.2829C103.149 23.2829 100.819 20.8989 100.819 17.8749C100.819 14.6589 103.182 12.467 106.017 12.467C108.868 12.467 110.269 14.6909 110.725 15.9069L110.97 16.5149L103.605 19.5069C104.176 20.5789 105.039 21.1388 106.278 21.1388ZM106.099 14.5469C104.86 14.5469 103.149 15.6189 103.214 17.6989L108.135 15.6989C107.874 15.011 107.059 14.5469 106.099 14.5469Z" fill="#14142B"/>
<path d="M14.6201 10V14.8492V16.7874V21.6364H18.6936V16.7874V14.8492V10H14.6201Z" fill="#FF7602"/>
<path d="M2.40391 16.9124C3.52877 16.9124 4.44064 16.017 4.44064 14.9124C4.44064 13.8078 3.52877 12.9124 2.40391 12.9124C1.27906 12.9124 0.367188 13.8078 0.367188 14.9124C0.367188 16.017 1.27906 16.9124 2.40391 16.9124Z" fill="#0066D9"/>
<path d="M2.40391 19.0944C3.52877 19.0944 4.44064 18.199 4.44064 17.0944C4.44064 15.9898 3.52877 15.0944 2.40391 15.0944C1.27906 15.0944 0.367188 15.9898 0.367188 17.0944C0.367188 18.199 1.27906 19.0944 2.40391 19.0944Z" fill="#0066D9"/>
<path d="M4.44064 14.9128H0.367188V17.0946H4.44064V14.9128Z" fill="#0066D9"/>
<path d="M30.9176 19.0944C32.0425 19.0944 32.9543 18.199 32.9543 17.0944C32.9543 15.9898 32.0425 15.0944 30.9176 15.0944C29.7927 15.0944 28.8809 15.9898 28.8809 17.0944C28.8809 18.199 29.7927 19.0944 30.9176 19.0944Z" fill="#4285F4"/>
<path d="M30.9176 16.9124C32.0425 16.9124 32.9543 16.017 32.9543 14.9124C32.9543 13.8078 32.0425 12.9124 30.9176 12.9124C29.7927 12.9124 28.8809 13.8078 28.8809 14.9124C28.8809 16.017 29.7927 16.9124 30.9176 16.9124Z" fill="#4285F4"/>
<path d="M28.8809 17.0948H32.9543V14.913H28.8809V17.0948Z" fill="#4285F4"/>
<path d="M9.43906 23.4582C10.5639 23.4582 11.4758 22.5628 11.4758 21.4582C11.4758 20.3536 10.5639 19.4582 9.43906 19.4582C8.31421 19.4582 7.40234 20.3536 7.40234 21.4582C7.40234 22.5628 8.31421 23.4582 9.43906 23.4582Z" fill="#EA4335"/>
<path d="M9.43906 25.6403C10.5639 25.6403 11.4758 24.7448 11.4758 23.6403C11.4758 22.5357 10.5639 21.6402 9.43906 21.6402C8.31421 21.6402 7.40234 22.5357 7.40234 23.6403C7.40234 24.7448 8.31421 25.6403 9.43906 25.6403Z" fill="#EA4335"/>
<path d="M11.4758 21.4586H7.40234V23.6404H11.4758V21.4586Z" fill="#EA4335"/>
<path d="M9.43906 10.3671C10.5639 10.3671 11.4758 9.47168 11.4758 8.36714C11.4758 7.26256 10.5639 6.36713 9.43906 6.36713C8.31421 6.36713 7.40234 7.26256 7.40234 8.36714C7.40234 9.47168 8.31421 10.3671 9.43906 10.3671Z" fill="#EA4335"/>
<path d="M9.43906 17.4578C10.5639 17.4578 11.4758 16.5624 11.4758 15.4578C11.4758 14.3532 10.5639 13.4578 9.43906 13.4578C8.31421 13.4578 7.40234 14.3532 7.40234 15.4578C7.40234 16.5624 8.31421 17.4578 9.43906 17.4578Z" fill="#EA4335"/>
<path d="M11.4758 8.36691H7.40234V15.5034H11.4758V8.36691Z" fill="#EA4335"/>
<path d="M23.8814 12.5491C25.0062 12.5491 25.9181 11.6537 25.9181 10.5491C25.9181 9.44451 25.0062 8.54907 23.8814 8.54907C22.7566 8.54907 21.8447 9.44451 21.8447 10.5491C21.8447 11.6537 22.7566 12.5491 23.8814 12.5491Z" fill="#34A853"/>
<path d="M23.8814 10.3671C25.0062 10.3671 25.9181 9.47168 25.9181 8.36714C25.9181 7.26256 25.0062 6.36713 23.8814 6.36713C22.7566 6.36713 21.8447 7.26256 21.8447 8.36714C21.8447 9.47168 22.7566 10.3671 23.8814 10.3671Z" fill="#34A853"/>
<path d="M21.8447 10.5488H25.9182V8.367H21.8447V10.5488Z" fill="#34A853"/>
<path d="M16.6598 6.18538C17.7847 6.18538 18.6965 5.28996 18.6965 4.18537C18.6965 3.0808 17.7847 2.18536 16.6598 2.18536C15.5349 2.18536 14.623 3.0808 14.623 4.18537C14.623 5.28996 15.5349 6.18538 16.6598 6.18538Z" fill="#FF7602"/>
<path d="M16.6598 4.00344C17.7847 4.00344 18.6965 3.108 18.6965 2.00343C18.6965 0.898855 17.7847 0.00341797 16.6598 0.00341797C15.5349 0.00341797 14.623 0.898855 14.623 2.00343C14.623 3.108 15.5349 4.00344 16.6598 4.00344Z" fill="#FF7602"/>
<path d="M14.624 4.1852H18.6975V2.00336H14.624V4.1852Z" fill="#FF7602"/>
<path d="M16.6598 32.0034C17.7847 32.0034 18.6965 31.108 18.6965 30.0034C18.6965 28.8988 17.7847 28.0034 16.6598 28.0034C15.5349 28.0034 14.623 28.8988 14.623 30.0034C14.623 31.108 15.5349 32.0034 16.6598 32.0034Z" fill="#FF7602"/>
<path d="M16.6598 29.822C17.7847 29.822 18.6965 28.9265 18.6965 27.8219C18.6965 26.7174 17.7847 25.8219 16.6598 25.8219C15.5349 25.8219 14.623 26.7174 14.623 27.8219C14.623 28.9265 15.5349 29.822 16.6598 29.822Z" fill="#FF7602"/>
<path d="M14.624 30.0036H18.6975V27.8218H14.624V30.0036Z" fill="#FF7602"/>
<path d="M23.8814 25.6403C25.0062 25.6403 25.9181 24.7448 25.9181 23.6403C25.9181 22.5357 25.0062 21.6402 23.8814 21.6402C22.7566 21.6402 21.8447 22.5357 21.8447 23.6403C21.8447 24.7448 22.7566 25.6403 23.8814 25.6403Z" fill="#34A853"/>
<path d="M23.8814 18.5491C25.0062 18.5491 25.9181 17.6536 25.9181 16.5491C25.9181 15.4445 25.0062 14.549 23.8814 14.549C22.7566 14.549 21.8447 15.4445 21.8447 16.5491C21.8447 17.6536 22.7566 18.5491 23.8814 18.5491Z" fill="#34A853"/>
<path d="M21.8447 23.6401H25.9182V16.549H21.8447V23.6401Z" fill="#34A853"/>
<path d="M16.6598 12.1854C17.7847 12.1854 18.6965 11.2899 18.6965 10.1854C18.6965 9.08081 17.7847 8.18533 16.6598 8.18533C15.5349 8.18533 14.623 9.08081 14.623 10.1854C14.623 11.2899 15.5349 12.1854 16.6598 12.1854Z" fill="#FF7602"/>
<path d="M16.6598 23.822C17.7847 23.822 18.6965 22.9266 18.6965 21.822C18.6965 20.7174 17.7847 19.822 16.6598 19.822C15.5349 19.822 14.623 20.7174 14.623 21.822C14.623 22.9266 15.5349 23.822 16.6598 23.822Z" fill="#FF7602"/>
</g>
<defs>
<clipPath id="clip0_759_1916">
<rect width="195.728" height="32" fill="white"/>
</clipPath>
</defs>
</svg>
