<svg width="20" height="20" viewBox="0 0 20 20" fill="none" xmlns="http://www.w3.org/2000/svg">
<g clip-path="url(#clip0_312_2694)">
<path d="M6.73345 19.2658C14.8084 19.2658 19.2263 12.5742 19.2263 6.77296C19.2263 6.58484 19.2221 6.39254 19.2138 6.20442C20.0732 5.58291 20.8148 4.81308 21.4039 3.9311C20.6035 4.28721 19.7537 4.51978 18.8835 4.62087C19.7997 4.07166 20.4858 3.20887 20.8144 2.19245C19.9525 2.70328 19.0098 3.06363 18.0269 3.25804C17.3647 2.55435 16.489 2.08842 15.5354 1.93229C14.5817 1.77616 13.6032 1.93853 12.7511 2.3943C11.899 2.85006 11.2208 3.57384 10.8213 4.45372C10.4218 5.3336 10.3233 6.32059 10.541 7.26208C8.79566 7.17449 7.0882 6.7211 5.52932 5.93129C3.97045 5.14148 2.59495 4.03289 1.492 2.67738C0.931426 3.64388 0.759889 4.78756 1.01225 5.87599C1.26462 6.96442 1.92195 7.91592 2.85065 8.53711C2.15343 8.51498 1.4715 8.32726 0.861172 7.98947V8.04382C0.860548 9.05809 1.21119 10.0413 1.8535 10.8262C2.4958 11.6112 3.39013 12.1495 4.38445 12.3497C3.7386 12.5264 3.06074 12.5521 2.40334 12.4249C2.68392 13.2972 3.22982 14.0601 3.96487 14.6072C4.69991 15.1543 5.58742 15.4583 6.50352 15.4767C4.94824 16.6983 3.02702 17.361 1.04929 17.3579C0.698558 17.3573 0.348169 17.3358 0 17.2935C2.00916 18.5825 4.34636 19.2671 6.73345 19.2658Z" fill="#503AE7"/>
</g>
<defs>
<clipPath id="clip0_312_2694">
<rect width="20" height="20" fill="white"/>
</clipPath>
</defs>
</svg>
