<svg width="174" height="32" viewBox="0 0 174 32" fill="none" xmlns="http://www.w3.org/2000/svg">
<path d="M47.2431 15.4002C45.0944 14.8842 44.4996 14.6167 44.4996 13.7567C44.4996 12.8968 44.9985 12.5336 46.4181 12.5336C47.0025 12.5372 47.5795 12.6633 48.1116 12.9037C48.6438 13.144 49.1192 13.4933 49.5069 13.9287L51.4254 12.0177C50.8061 11.3406 50.0501 10.8015 49.2071 10.436C48.3639 10.0705 47.4527 9.88661 46.5333 9.89648C43.8474 9.89648 41.6602 11.4061 41.6602 13.8714C41.6602 16.3365 43.4061 17.3494 45.9193 17.9418C48.4326 18.5342 48.9697 18.9164 48.9697 19.8529C48.9697 20.7893 48.2023 21.3243 46.5908 21.3243C45.9284 21.3385 45.2712 21.2051 44.6672 20.9341C44.063 20.6629 43.5273 20.2609 43.0991 19.7573L41.1807 21.5155C41.8134 22.3152 42.63 22.9515 43.5617 23.3706C44.4934 23.7897 45.5125 23.9793 46.5333 23.9234C50.2551 23.9234 51.8859 22.1843 51.8859 19.5853C51.8091 16.6423 49.411 15.8971 47.2431 15.4002ZM59.8093 9.89648C56.0873 9.89648 53.8811 12.763 53.8811 16.9099C53.8811 21.0568 56.0873 23.9234 59.8093 23.9234C63.5311 23.9234 65.7183 21.0568 65.7183 16.9099C65.7183 12.763 63.5503 9.89648 59.8093 9.89648ZM59.8093 21.2288C57.6222 21.2288 56.7013 19.3178 56.7013 16.9099C56.7013 14.502 57.6222 12.591 59.8093 12.591C61.9963 12.591 62.9364 14.502 62.9364 16.9099C62.9364 19.3178 62.0156 21.2288 59.8093 21.2288ZM76.7687 17.7508C76.7687 19.9293 75.6944 21.2671 73.9678 21.2671C72.2411 21.2671 71.1667 19.8911 71.1667 17.7125V10.0685H68.4425V17.7125C68.4425 21.6683 70.668 23.8852 73.9678 23.8852C77.2676 23.8852 79.4931 21.6111 79.4931 17.6743V10.0302H76.7687V17.7508ZM91.2726 15.8589V18.84C91.1 18.477 90.6587 17.8081 90.3326 17.2921L85.4787 10.1067H82.9847V23.7132H85.6898V17.7316V14.7504C85.8625 15.0944 86.3037 15.7823 86.6298 16.2983L91.6564 23.7132H94.0928V10.1067H91.2726V15.8589ZM101.747 10.1067H97.4886V23.7132H101.556C102.478 23.7855 103.406 23.6604 104.275 23.3462C105.145 23.0321 105.938 22.5361 106.599 21.8917C107.26 21.2472 107.776 20.4693 108.111 19.61C108.445 18.7507 108.591 17.8301 108.539 16.9099C108.539 11.9412 105.661 10.1067 101.747 10.1067ZM101.556 21.0759H100.251V12.7438H101.69C104.587 12.7438 105.776 14.1389 105.776 16.9099C105.831 17.4737 105.758 18.0426 105.565 18.5752C105.371 19.1079 105.062 19.591 104.658 19.9897C104.253 20.3884 103.766 20.6927 103.229 20.8806C102.693 21.0684 102.121 21.1352 101.556 21.0759ZM116.981 12.591C117.501 12.5635 118.017 12.6905 118.465 12.9558C118.912 13.2212 119.271 13.6131 119.494 14.0816L122.026 12.9158C121.597 11.9667 120.888 11.1698 119.994 10.6306C119.1 10.0914 118.062 9.83543 117.019 9.89648C113.47 9.89648 110.957 12.763 110.957 16.9099C110.957 21.0568 113.354 23.9234 116.923 23.9234C117.981 23.9834 119.032 23.7213 119.937 23.1717C120.841 22.6221 121.557 21.8111 121.988 20.8466L119.685 19.4898C119.459 20.0106 119.084 20.4534 118.605 20.7628C118.128 21.072 117.569 21.2341 117 21.2288C114.967 21.2288 113.777 19.3178 113.777 16.9099C113.777 14.502 114.947 12.591 116.981 12.591ZM127.11 10.1067H124.386V23.7132H132.598V21.0377H127.11V10.1067ZM139.792 9.89648C136.07 9.89648 133.863 12.763 133.863 16.9099C133.863 21.0568 136.07 23.9234 139.792 23.9234C143.513 23.9234 145.719 21.0568 145.719 16.9099C145.719 12.763 143.513 9.89648 139.792 9.89648ZM139.792 21.2288C137.585 21.2288 136.664 19.3178 136.664 16.9099C136.664 14.502 137.585 12.591 139.792 12.591C141.997 12.591 142.899 14.502 142.899 16.9099C142.899 19.3178 141.997 21.2288 139.792 21.2288ZM156.731 17.7508C156.731 19.9293 155.676 21.2671 153.931 21.2671C152.185 21.2671 151.149 19.8911 151.149 17.7125V10.0685H148.406V17.7125C148.406 21.6683 150.631 23.8852 153.931 23.8852C157.23 23.8852 159.475 21.6111 159.475 17.6743V10.0302H156.731V17.7508ZM167.15 10.1067H162.89V23.7132H166.957C167.88 23.7855 168.807 23.6604 169.677 23.3462C170.547 23.0321 171.339 22.5361 172 21.8917C172.662 21.2472 173.178 20.4693 173.512 19.61C173.847 18.7507 173.993 17.8301 173.941 16.9099C173.941 11.9412 171.063 10.1067 167.15 10.1067ZM166.957 21.0759H165.615V12.7438H167.053C169.95 12.7438 171.139 14.1389 171.139 16.9099C171.193 17.4703 171.121 18.0354 170.93 18.565C170.739 19.0946 170.432 19.5756 170.034 19.9735C169.634 20.3716 169.151 20.6768 168.618 20.8673C168.087 21.0579 167.52 21.1291 166.957 21.0759Z" fill="#14142B"/>
<path d="M33.3048 16C33.3048 24.8889 25.8804 32 16.8928 32C7.90532 32 0.350586 24.8889 0.350586 16C0.350586 7.11112 7.77506 0 16.7626 0C25.7501 0 33.3048 7.11112 33.3048 16Z" fill="url(#paint0_linear_759_1917)"/>
<path d="M4.35675 17.1931C4.36357 17.1355 4.40543 17.0951 4.45819 17.0951C4.50902 17.0951 4.55114 17.1354 4.55904 17.1928L4.77815 18.5838L4.55904 19.951C4.55089 20.0084 4.50928 20.0483 4.45819 20.0483C4.40541 20.0483 4.36357 20.0082 4.35675 19.9505L4.17188 18.5838L4.35675 17.1931Z" fill="white"/>
<path d="M5.3918 16.2343C5.44508 16.2343 5.4883 16.2755 5.49702 16.3352L5.77947 18.5838L5.49674 20.7831C5.48805 20.8426 5.4448 20.8841 5.3918 20.8841C5.33798 20.8841 5.29365 20.8415 5.28658 20.7826L5.03809 18.5838L5.28658 16.3352C5.29391 16.2769 5.33823 16.2343 5.3918 16.2343Z" fill="white"/>
<path d="M9.21648 14.4488C9.22127 14.3438 9.30566 14.2611 9.40752 14.2611C9.50897 14.2611 9.59296 14.3438 9.59895 14.4488L9.82274 18.5857L9.59895 21.2594V21.2586C9.59296 21.3633 9.50897 21.446 9.40752 21.446C9.30566 21.446 9.22157 21.3636 9.21648 21.2591L9.01855 18.5857L9.21648 14.4488Z" fill="white"/>
<path d="M7.23465 15.8436C7.24093 15.7609 7.30482 15.699 7.38311 15.699C7.4606 15.699 7.52448 15.7609 7.5313 15.843L7.78468 18.5846L7.5313 21.2365C7.52448 21.3186 7.4606 21.3806 7.38311 21.3806C7.30479 21.3806 7.24063 21.3186 7.23465 21.2365L7.01172 18.5846L7.23465 15.8436Z" fill="white"/>
<path d="M11.6984 21.2156C11.6932 21.3448 11.5905 21.4457 11.4641 21.4457C11.3368 21.4457 11.2338 21.3446 11.2297 21.2164L11.0576 18.5868L11.2297 13.0796C11.2339 12.9504 11.3368 12.8492 11.4644 12.8492C11.5908 12.8492 11.6935 12.9501 11.6987 13.0793L11.8926 18.587L11.6984 21.2156Z" fill="white"/>
<path d="M15.996 21.1417C15.9928 21.3162 15.8492 21.4582 15.6753 21.4582C15.5012 21.4582 15.3571 21.3162 15.3544 21.1433C15.3544 21.1433 15.2334 18.5906 15.2334 18.5865L15.3544 12.2279C15.3571 12.0532 15.5009 11.9114 15.6752 11.9114C15.8492 11.9114 15.993 12.0534 15.996 12.2277L16.1315 18.5887L15.996 21.1417Z" fill="white"/>
<path d="M13.8312 21.1744C13.8271 21.3278 13.705 21.4482 13.5536 21.4482C13.401 21.4482 13.279 21.3278 13.2757 21.176L13.1289 18.5879L13.2755 13.04C13.2787 12.8866 13.4008 12.7665 13.5533 12.7665C13.7048 12.7665 13.8268 12.8866 13.8309 13.04L13.9959 18.5876L13.8312 21.1763V21.1744Z" fill="white"/>
<path d="M8.5615 21.2587C8.5547 21.3525 8.48181 21.424 8.39183 21.424C8.30046 21.424 8.22788 21.3525 8.2219 21.2584L8.01172 18.5846L8.2219 16.042C8.2276 15.9475 8.30046 15.8761 8.39183 15.8761C8.48211 15.8761 8.5549 15.947 8.5615 16.0409L8.80016 18.5846L8.5615 21.2587Z" fill="white"/>
<path d="M6.5099 21.1549C6.50228 21.2261 6.44899 21.2775 6.38322 21.2775C6.31632 21.2775 6.26303 21.2258 6.25649 21.1544L6.02051 18.5841L6.25649 15.9163C6.26329 15.8452 6.31658 15.7935 6.38319 15.7935C6.44897 15.7935 6.50226 15.845 6.51015 15.9163L6.77796 18.5841L6.5099 21.1549Z" fill="white"/>
<path d="M14.3106 13.2432C14.3138 13.0772 14.4457 12.9478 14.6102 12.9478C14.7743 12.9478 14.9054 13.0772 14.9092 13.2426L15.0593 18.5884L14.9092 21.1603V21.1582C14.9054 21.324 14.7743 21.4533 14.6102 21.4533C14.4454 21.4533 14.3139 21.3238 14.3106 21.1601L14.1768 18.5881L14.3106 13.2432Z" fill="white"/>
<path d="M10.645 21.2422C10.6396 21.3593 10.5458 21.4511 10.4321 21.4511C10.3174 21.4511 10.2239 21.3593 10.2193 21.2433L10.0342 18.5865L10.219 13.5034C10.2239 13.3863 10.3174 13.2945 10.4321 13.2945C10.5458 13.2945 10.6393 13.386 10.645 13.5034L10.8538 18.5865L10.645 21.2422Z" fill="white"/>
<path d="M12.7611 21.2005V21.2001C12.756 21.3406 12.6442 21.4508 12.5053 21.4508C12.3658 21.4508 12.2532 21.3402 12.2494 21.2002L12.0898 18.587L12.2491 12.8941C12.2529 12.7525 12.3655 12.6418 12.5053 12.6418C12.6442 12.6418 12.7567 12.7528 12.7611 12.8941L12.9405 18.5873L12.7611 21.1991V21.2001C12.7611 21.1999 12.7611 21.1996 12.7611 21.1994V21.2005Z" fill="white"/>
<path d="M25.1119 15.5447C25.4817 15.391 25.8875 15.3056 26.313 15.3056C28.0278 15.3056 29.4178 16.6847 29.4179 18.3857C29.4179 20.0866 28.0275 21.4654 26.3128 21.4654C26.2573 21.4654 17.7134 21.4611 17.7055 21.4603C17.52 21.4418 17.3726 21.2847 17.3701 21.0963V11.3222C17.3723 11.1426 17.4347 11.05 17.6691 10.9601C18.272 10.7288 18.9549 10.592 19.6554 10.592C22.518 10.592 24.8648 12.7692 25.1119 15.5447Z" fill="white"/>
<path d="M16.3932 11.652C16.3959 11.4654 16.5493 11.3136 16.7361 11.3136C16.9223 11.3136 17.0756 11.4654 17.0783 11.6515L17.2309 18.5895L17.0783 21.1075V21.1046C17.0756 21.2912 16.9223 21.4428 16.7361 21.4428C16.5493 21.4428 16.3959 21.2912 16.3935 21.1073L16.2529 18.5895L16.3932 11.652Z" fill="white"/>
<defs>
<linearGradient id="paint0_linear_759_1917" x1="16.8277" y1="0" x2="16.8277" y2="32" gradientUnits="userSpaceOnUse">
<stop stop-color="#FF7602"/>
<stop offset="1" stop-color="#FF3502"/>
</linearGradient>
</defs>
</svg>
