<svg width="34" height="49" viewBox="0 0 34 49" fill="none" xmlns="http://www.w3.org/2000/svg">
<path d="M31.761 12.6927L32.3654 14.948C33.3774 18.7422 33.0203 22.7657 31.3594 26.2823C29.6985 29.7989 26.8449 32.5736 23.3206 34.0987L25.1818 41.045L31.7951 39.273L33.0037 43.7836L15.3683 48.509L14.1597 43.9984L20.773 42.2264L18.9117 35.28C15.0971 35.7214 11.2384 34.7453 8.04175 32.5302C4.84507 30.3152 2.52408 27.0093 1.50339 23.2174L0.899081 20.9621L5.30793 19.7808L5.91224 22.0361C6.7136 25.0268 8.64339 27.5839 11.2771 29.1447C13.9108 30.7056 17.0326 31.1425 19.9559 30.3592C22.8791 29.5759 25.3643 27.6367 26.8647 24.968C28.3651 22.2994 28.7579 19.12 27.9565 16.1293L27.3522 13.874L31.761 12.6927ZM18.7473 25.8486C20.5012 25.3786 21.9923 24.2151 22.8926 22.6139C23.7928 21.0127 24.0285 19.1051 23.5476 17.3107L20.5261 6.0342C20.0453 4.23977 18.8874 2.70554 17.3072 1.769C15.727 0.832472 13.8539 0.57036 12.0999 1.04033C10.346 1.5103 8.85487 2.67385 7.95462 4.27502C7.05438 5.87619 6.81875 7.78382 7.29957 9.57824L10.3211 20.8547C10.8019 22.6492 11.9598 24.1834 13.54 25.1199C15.1202 26.0565 16.9933 26.3186 18.7473 25.8486Z" fill="#14142B"/>
</svg>
