<svg width="142" height="40" viewBox="0 0 142 40" fill="none" xmlns="http://www.w3.org/2000/svg">
<path d="M134.673 7.3888V15.1173H137.356V18.8542H134.673V25.8183C134.673 26.4978 134.84 27.0073 135.176 27.347C135.511 27.6867 136.014 27.8566 136.685 27.8566C137.02 27.8566 138.614 27.8566 138.614 27.8566V32.2729C138.614 32.2729 135.679 32.2729 135.259 32.2729C133.918 32.2729 132.241 32.0182 131.067 30.9141C129.893 29.81 129.39 28.3662 129.39 26.3279V18.7693H126.958V15.0324H129.39V7.3888H134.673ZM118.992 32.6126C116.56 32.6126 114.463 31.7634 113.038 30.2346C111.529 28.7059 110.858 26.6676 110.858 24.2896V23.6952C110.858 21.0623 111.529 18.9391 112.87 17.2406C114.212 15.6269 116.141 14.7776 118.656 14.7776C120.921 14.7776 122.765 15.457 124.023 16.8159C125.365 18.2597 125.952 20.1282 125.952 22.5062V25.3087H116.309V25.3937C116.392 26.3279 116.812 26.9225 117.399 27.5169C117.985 28.1115 118.824 28.3662 119.746 28.3662C120.753 28.3662 121.507 28.2813 122.095 28.1115C122.681 27.9416 123.52 27.6868 124.358 27.2622L125.616 30.5743C124.861 31.1689 123.939 31.5935 122.765 32.0182C121.592 32.4428 120.25 32.6126 118.992 32.6126ZM118.573 18.8542C117.818 18.8542 117.231 19.109 116.895 19.7035C116.56 20.298 116.309 21.0623 116.224 21.9116L116.309 21.9966H120.837V21.5719C120.837 20.6377 120.669 20.0432 120.334 19.6186C119.831 19.0241 119.327 18.8542 118.573 18.8542ZM101.299 32.6126C98.8667 32.6126 96.7701 31.7634 95.3448 30.2346C93.9195 28.7059 93.1645 26.6676 93.1645 24.2896V23.6952C93.1645 21.0623 93.8353 18.9391 95.1769 17.2406C96.5186 15.6269 98.4474 14.7776 100.963 14.7776C103.227 14.7776 105.072 15.457 106.33 16.8159C107.587 18.1747 108.258 20.1282 108.258 22.5062V25.3087H98.6153V25.3937C98.6989 26.3279 99.1182 26.9225 99.7054 27.5169C100.292 28.1115 101.131 28.3662 102.053 28.3662C103.06 28.3662 103.814 28.2813 104.401 28.1115C104.988 27.9416 105.826 27.6868 106.665 27.2622L107.923 30.5743C107.168 31.1689 106.246 31.5935 105.072 32.0182C103.982 32.4428 102.64 32.6126 101.299 32.6126ZM100.963 18.8542C100.208 18.8542 99.6212 19.109 99.2861 19.7035C98.9504 20.298 98.6989 21.0623 98.6153 21.9116L98.6989 21.9966H103.227V21.5719C103.227 20.6377 103.06 20.0432 102.724 19.6186C102.221 19.0241 101.718 18.8542 100.963 18.8542ZM85.2825 24.969L87.1271 14.9475H91.9065L88.0494 32.188H83.6052L80.8382 23.0157H80.754L77.9871 32.188H73.5429L69.6016 15.0324H74.4652L76.3098 25.1389H76.3934L79.0773 15.0324H82.4314L85.2825 24.969ZM63.0607 27.347C63.0607 26.9224 62.8092 26.4978 62.3062 26.158C61.8032 25.8183 60.9646 25.4786 59.7066 25.2239C57.778 24.7992 56.2685 24.2047 55.2623 23.4403C54.2561 22.5911 53.7529 21.487 53.7529 20.0432C53.7529 18.5145 54.4238 17.2406 55.5977 16.1365C56.8555 15.0324 58.5328 14.6077 60.6289 14.6077C62.8092 14.6077 64.6538 15.1173 65.9118 16.1365C67.2534 17.1556 67.8406 18.4296 67.7564 20.1281V20.213H62.7255C62.7255 19.5336 62.5577 19.024 62.222 18.6843C61.8869 18.3446 61.2997 18.1747 60.6289 18.1747C60.0423 18.1747 59.6229 18.3446 59.2036 18.6843C58.7842 19.024 58.6164 19.3638 58.6164 19.8733C58.6164 20.3829 58.8679 20.7226 59.2872 21.0623C59.7066 21.402 60.6289 21.6569 61.8869 21.9116C63.8993 22.3363 65.4924 22.9308 66.4148 23.6952C67.4213 24.5445 67.9242 25.6485 67.9242 27.1772C67.9242 28.7059 67.2534 29.9799 65.9118 30.999C64.5701 32.0182 62.8092 32.5277 60.6289 32.5277C58.3649 32.5277 56.5201 31.9332 55.1784 30.7442C53.8368 29.5552 53.2498 28.2813 53.3337 26.7526V26.6676H58.1134C58.1134 27.5169 58.3649 28.1115 58.8679 28.3662C59.3714 28.621 60.0423 28.9607 60.7967 28.9607C61.5512 28.9607 62.0547 28.7909 62.3898 28.5361C62.8928 28.2813 63.0607 27.8566 63.0607 27.347ZM40.2523 14.9475L40.4201 17.3255C41.007 16.4762 41.6779 15.7968 42.4326 15.3722C43.2711 14.8626 44.1096 14.6077 45.1159 14.6077C46.7091 14.6077 48.0508 15.2023 48.9732 16.2215C49.8956 17.2406 50.3987 19.024 50.3987 21.402V32.188H45.2836V21.487C45.2836 20.4679 45.1159 19.8733 44.6966 19.4487C44.2774 19.024 43.6903 18.8542 42.9357 18.8542C42.4326 18.8542 42.0133 18.9392 41.594 19.109C41.1747 19.2789 40.8393 19.5336 40.5877 19.8733V32.2729H35.3887V15.0324H40.2523V14.9475ZM32.2023 11.7202H26.9194V7.3888H32.2023V11.7202ZM32.2023 32.2729H26.9194V15.0324H32.2023V32.2729ZM15.3475 32.2729V18.6843H12.9158V14.9475H15.3475V13.164C15.3475 11.2106 15.9345 9.68192 17.0246 8.57786C18.1986 7.4738 19.9595 7.21898 21.2174 7.21898C21.6366 7.21898 24.5715 7.21898 24.5715 7.21898V11.5503C24.5715 11.5503 22.9783 11.5503 22.6429 11.5503C21.972 11.5503 21.4689 11.7202 21.1335 12.0599C20.7981 12.3996 20.6304 12.9092 20.6304 13.5886V14.8626H23.9007V18.5994H20.6304V32.103H15.3475V32.2729ZM5.28497 8.83263C5.28497 3.65197 7.9683 3.22733 12.4965 3.22733V7.30392C10.4001 7.30392 9.56154 7.64363 9.56154 8.91757V15.6269C9.56154 17.1556 9.6454 18.7693 8.38757 19.7884C9.6454 20.8076 9.56154 22.3363 9.56154 23.9499V30.6593C9.56154 32.0182 10.4001 32.2729 12.4965 32.2729V36.3495C7.9683 36.3495 5.28497 35.9249 5.28497 30.7442V23.9499C5.28497 22.8459 5.28497 21.6569 3.1886 21.6569V19.8733V18.0899C5.28497 18.0899 5.28497 16.8159 5.28497 15.7968V8.83263Z" fill="#14142B"/>
</svg>
